# xmcd
#
# Track frame offsets:
#	150
#	13043
#	26910
#	40619
#	55313
#	68582
#	83371
#	97539
#	110338
#	122193
#	134935
#
# Disc length: 1971 seconds
#
# Revision: 0
# Processed by: cddbd v1.4PL0 Copyright (c) Steve Scherf et al.
# Submitted via: dBpowerAMP V4.0
#
DISCID=8707b10b
DTITLE=Aaron Tippin - Tool Box
DYEAR=1900
DGENRE=
TTITLE0=01 Ten Pound Hammer
TTITLE1=That's as Close as I Got To Loving You
TTITLE2=A Real Nice Problem To Have
TTITLE3=With Out Your Love
TTITLE4=Hows The Radio Know
TTITLE5=Everything I Own
TTITLE6=I Can Help
TTITLE7=You Got To Start Somewhere
TTITLE8=She Made A Man Out of A Mountain of Stone
TTITLE9=You've Always Got Me
TTITLE10=Country BoysA Tool
EXTD=
EXTT0=
EXTT1=
EXTT2=
EXTT3=
EXTT4=
EXTT5=
EXTT6=
EXTT7=
EXTT8=
EXTT9=
EXTT10=
PLAYORDER=
